# xmcd
#
# Track frame offsets: 
#        150
#        21198
#        32540
#        55636
#        70690
#        86238
#        116522
#        132438
#        149900
#        160243
#        177561
#        194471
#        206144
#        225970
#        241640
#        262891
#
# Disc length: 3762 seconds
#
# Revision: 0
# Processed by: cddbd v1.5.2PL0 Copyright (c) Steve Scherf et al.
# Submitted via: ExactAudioCopy v1.0b3
#
DISCID=de0eb010
DTITLE=合辑 - 草原歌典-第八辑
DYEAR=2006
DGENRE=
TTITLE0=好甜的歌儿唱草原
TTITLE1=弹起我心爱的好比斯
TTITLE2=长调情
TTITLE3=永远的歌谣
TTITLE4=草原晨曦圆舞曲
TTITLE5=敕勒歌
TTITLE6=朦胧的绿草滩
TTITLE7=美丽的蒙古包
TTITLE8=森德尔姑娘
TTITLE9=我爱昭乌达
TTITLE10=这是世界迷人的地方
TTITLE11=东贵姑娘
TTITLE12=爱在北疆
TTITLE13=大雁
TTITLE14=圣主成吉思汗
TTITLE15=为内蒙古喝彩
EXTD=
EXTT0=
EXTT1=
EXTT2=
EXTT3=
EXTT4=
EXTT5=
EXTT6=
EXTT7=
EXTT8=
EXTT9=
EXTT10=
EXTT11=
EXTT12=
EXTT13=
EXTT14=
EXTT15=
PLAYORDER=
